<svg width="25" height="51" viewBox="0 0 25 51" fill="none" xmlns="http://www.w3.org/2000/svg">
<g clip-path="url(#clip0)">
<path fill-rule="evenodd" clip-rule="evenodd" d="M23.368 19.7866C23.2964 20.0529 22.2607 19.6127 22.4955 19.6478C22.6394 19.6692 23.086 19.7587 23.368 19.7866Z" fill="url(#paint0_linear)"/>
<path fill-rule="evenodd" clip-rule="evenodd" d="M23.1089 20.7263C23.2034 20.6468 23.4703 20.7213 23.567 20.7592C23.3988 20.8379 23.2628 20.7914 23.1089 20.7263Z" fill="url(#paint1_linear)"/>
<path fill-rule="evenodd" clip-rule="evenodd" d="M21.1996 23.8484C21.3234 24.5569 20.3944 24.9656 20.3607 24.3258C20.3543 24.2019 20.4323 24.3143 20.4395 24.2928C20.5332 24.0974 20.7844 23.1999 21.1996 23.8484ZM20.4667 24.4482C20.5118 24.504 20.6298 24.4975 20.7308 24.5054C20.8138 24.353 20.9269 24.2363 20.9219 23.9822C20.7064 24.0638 20.584 24.2535 20.4667 24.4482Z" fill="url(#paint2_linear)"/>
<path fill-rule="evenodd" clip-rule="evenodd" d="M22.1254 24.2979C22.1748 24.4117 22.0739 24.7051 21.905 24.7037C21.8119 24.4933 22.0438 24.4303 22.1254 24.2979Z" fill="url(#paint3_linear)"/>
<path fill-rule="evenodd" clip-rule="evenodd" d="M11.4732 29.595C11.5663 29.9171 11.3265 30.3351 11.4732 30.6299C11.2012 30.4174 11.3723 29.9099 11.4732 29.595Z" fill="url(#paint4_linear)"/>
<path fill-rule="evenodd" clip-rule="evenodd" d="M11.4138 31.5075C11.4017 31.1789 10.8055 30.6822 11.1275 30.1833C11.2077 30.2606 11.1275 30.4174 11.1411 30.5298C11.1834 30.8969 11.479 31.2562 11.5226 31.6299C11.1927 31.4989 11.1046 31.1575 10.842 30.9685C10.9321 31.3071 11.1612 31.5261 11.237 31.8782C10.9772 31.6027 10.5013 31.1711 10.7052 30.7287C11.0875 30.8583 11.2156 31.2162 11.4138 31.5075Z" fill="url(#paint5_linear)"/>
<path fill-rule="evenodd" clip-rule="evenodd" d="M8.38755 31.5217C8.42476 31.5217 8.41403 31.5704 8.42047 31.6005C8.17855 32.3735 7.59021 32.8773 7.06057 33.4964C6.20168 34.4935 5.48022 34.9429 5.11591 36.5784C5.04434 36.8919 5.13022 36.9456 4.98779 37.2941C5.02 37.214 4.95845 36.5963 5.03646 36.0717C5.18748 35.0496 5.73001 34.807 6.32479 34.1692C6.63757 33.8328 6.91885 33.3454 7.29247 32.9732C7.74338 32.5187 8.17282 32.2181 8.38755 31.5217Z" fill="url(#paint6_linear)"/>
<path fill-rule="evenodd" clip-rule="evenodd" d="M11.6702 32.2181C11.7196 32.6046 11.5364 33.2882 11.6101 33.5938C11.2508 33.3547 11.4655 32.508 11.6702 32.2181Z" fill="url(#paint7_linear)"/>
<path fill-rule="evenodd" clip-rule="evenodd" d="M11.2234 32.5675C11.2828 32.9132 11.4632 33.4829 11.3294 33.7635C11.0144 33.6389 11.0746 32.8624 11.2234 32.5675Z" fill="url(#paint8_linear)"/>
<path fill-rule="evenodd" clip-rule="evenodd" d="M16.0783 33.2975C16.1627 33.319 16.0575 33.5058 16.1792 33.4957C16.3323 33.5358 16.2035 33.2495 16.3832 33.319C16.4683 33.4471 16.3552 33.6231 16.2443 33.6539C16.1233 33.6639 16.1012 33.5888 16.021 33.5616C16.0282 33.46 16.0224 33.3426 16.0783 33.2975Z" fill="url(#paint9_linear)"/>
<path fill-rule="evenodd" clip-rule="evenodd" d="M18.0673 34.437C17.874 34.306 17.8726 34.0075 17.7266 33.8379C17.9928 33.7685 18.1252 34.1056 18.0673 34.437Z" fill="url(#paint10_linear)"/>
<path fill-rule="evenodd" clip-rule="evenodd" d="M8.67417 33.3441L8.78869 33.352C8.74813 33.6736 8.78081 33.9315 8.88674 34.1257C9.02488 34.1608 9.13797 34.2187 9.30044 34.2323C8.82805 34.6596 8.47305 33.9575 8.67417 33.3441Z" fill="url(#paint11_linear)"/>
<path fill-rule="evenodd" clip-rule="evenodd" d="M8.16082 33.5781C8.66183 33.6948 8.73341 34.9809 8.01123 34.6023C8.12718 34.5021 8.29752 34.4592 8.37626 34.3218C8.42994 33.9625 8.19088 33.8594 8.16082 33.5781Z" fill="url(#paint12_linear)"/>
<path fill-rule="evenodd" clip-rule="evenodd" d="M8.88025 35.3138C8.79007 35.2136 8.76788 35.0532 8.71706 34.9187C8.51952 34.8836 8.37637 34.9115 8.39569 35.1255C8.18813 34.6946 9.13577 34.6281 8.88025 35.3138Z" fill="url(#paint13_linear)"/>
<path fill-rule="evenodd" clip-rule="evenodd" d="M6.06078 35.074C5.79993 35.5275 5.60975 36.0182 5.49678 36.5291C5.49033 35.9851 5.6435 35.2672 6.06078 35.074Z" fill="url(#paint14_linear)"/>
<path fill-rule="evenodd" clip-rule="evenodd" d="M19.9226 40.1272C19.4101 40.8071 18.6021 41.1357 18.149 41.8807C17.0038 42.3216 15.7355 42.6179 14.5775 43.0438C14.3019 42.8291 13.7579 42.8484 13.7007 42.4447C13.958 42.5412 14.206 42.6609 14.4415 42.8026C15.397 42.5943 16.1206 41.8722 16.9587 41.3711C17.8291 40.8439 18.7454 40.3967 19.6964 40.0349C19.768 40.0084 19.8553 40.0621 19.9226 40.1272ZM16.0812 42.3818C16.5665 42.1842 17.3774 42.1427 17.3696 41.515C16.968 41.8092 16.3625 42.0876 16.0812 42.3818Z" fill="url(#paint15_linear)"/>
<path fill-rule="evenodd" clip-rule="evenodd" d="M13.8859 46.2903C13.684 46.6761 13.3935 46.9624 13.0907 47.2301C12.6305 47.0562 12.1502 46.9001 11.9541 46.4972C11.9956 46.354 12.1259 46.3096 12.2046 46.2109C12.5253 46.2051 12.8846 46.2509 13.2066 46.1665C13.4078 46.1142 13.4285 45.9668 13.6017 46.0033C13.7749 46.0398 13.7291 46.1894 13.8859 46.2903ZM12.2289 46.402C12.2798 46.5609 12.4193 46.6432 12.5918 46.6961C12.7815 46.5709 13.0263 46.5093 13.1558 46.3147C12.8502 46.2016 12.5389 46.3855 12.2289 46.402ZM12.7715 46.8622C12.8967 46.8736 12.9096 46.981 13.0714 46.9602C13.1644 46.6833 13.382 46.548 13.5724 46.3826C13.1537 46.3669 13.0198 46.6811 12.7715 46.8622Z" fill="url(#paint16_linear)"/>
<path fill-rule="evenodd" clip-rule="evenodd" d="M16.9866 48.5041C16.8098 48.4597 16.4577 48.615 16.1335 48.6351C15.5501 49.1311 15.3003 50.0129 14.3083 50.0379C14.173 50.181 14.148 50.458 13.9655 50.5504C13.3249 50.6334 12.1303 50.8445 11.8426 50.2068C11.0252 50.433 10.8406 49.602 10.3739 49.2971C9.83924 49.502 9.34021 49.7899 8.8952 50.1503C9.09775 49.6958 9.82566 49.4911 10.268 49.1747C10.1248 48.7718 9.13855 49.1031 9.28456 48.4525C8.61749 48.5914 7.98764 48.7732 7.51096 49.1318C7.83304 48.746 8.60819 48.5256 9.28742 48.416C9.31677 47.7848 8.7499 47.4011 8.34694 47.0841C7.92609 46.752 7.41291 46.4592 6.99635 46.1443C6.54543 45.8029 6.1074 45.4371 5.60638 45.2017C5.10537 44.9662 4.55998 44.7543 4.25507 44.2619C4.1835 43.6893 4.23575 43.3765 4.24935 42.7281C4.29229 40.724 3.89148 38.9311 4.2243 36.6307C4.51775 34.5887 5.92847 33.4858 6.98991 32.2647C7.34205 31.8596 7.83233 31.4774 7.89674 30.8332C7.70063 30.5684 7.34419 30.6035 7.03786 30.5419C6.41803 30.4188 5.78246 30.2127 5.10537 30.2127C4.57572 30.2127 4.07972 30.421 3.56367 30.3322C2.73628 29.0439 1.40715 28.1936 0.22046 27.2188C-0.0193122 25.5504 -0.0658353 22.8807 0.0923427 20.9611C0.12813 20.5123 0.988447 19.8452 0.925462 19.4866C0.891822 19.2963 0.598369 19.2755 0.567592 19.1166C0.733643 18.5705 0.906137 17.8684 1.12873 17.1626C1.34345 16.4949 1.48231 15.7591 1.68701 15.2473C1.84161 14.863 2.17156 14.6382 2.61747 14.5853C2.54589 13.7858 3.08341 13.6913 3.32604 13.2561C3.29598 13.0414 2.9875 13.0722 2.93096 12.8825C3.37257 10.9887 4.33881 9.32889 5.06386 7.70631C6.0573 5.48252 7.1896 3.44911 8.31617 1.34484C8.57312 0.865294 8.74561 0.186774 9.33251 -0.00146484C9.57586 0.266221 9.41983 0.673476 9.34039 0.957624C9.09775 1.83082 8.80573 2.7713 8.52874 3.73612C8.16157 5.01514 7.9404 6.42514 7.77435 7.86163C7.54174 9.87572 7.41648 12.1961 7.35565 14.2718C7.18673 20.0693 8.02486 24.9248 8.98323 29.6072C9.2094 29.7571 9.4605 29.8654 9.72474 29.9271C9.78343 29.7203 9.83067 29.4977 9.99171 29.4096C9.67034 28.7461 9.62668 27.3082 9.93445 26.4536C10.1749 26.5424 10.1248 26.858 10.1599 27.0448C10.2787 27.6675 10.5507 28.2852 11.0431 28.6416C10.5285 26.7091 10.6896 23.2357 11.9829 21.923C12.2255 21.6768 12.6163 21.4735 12.9713 21.4936C13.0658 21.8271 12.7566 22.1048 12.5984 22.424C12.0373 23.5463 11.625 25.6971 11.9586 27.0935C12.1733 26.8788 12.2126 26.3298 12.5798 26.4493C12.8962 26.5517 12.7065 27.1751 12.6514 27.5666C12.7523 27.6253 12.9935 27.3691 13.1911 27.5287C13.2662 28.1242 12.8561 28.4799 12.7416 28.9916C13.1825 29.0825 13.496 28.8213 13.8918 28.9966C14.0163 29.2765 13.7651 29.4476 13.7279 29.6752C13.9555 29.8004 14.367 29.7653 14.6354 29.8548C14.7549 29.2493 14.8186 28.5801 15.0305 28.0812C15.3884 27.8944 15.7326 27.8407 15.9159 27.4929C16.1564 27.0348 16.2286 26.2661 16.316 25.6427C16.5622 23.8863 16.3661 22.3661 16.316 20.7757C16.2269 17.7581 15.9825 14.747 15.5838 11.7545C15.2037 8.89158 14.5059 6.23905 14.0707 3.40473C13.9991 2.93521 13.9204 2.45352 13.8252 2.0069C13.7386 1.59463 13.4673 1.18523 13.6105 0.764374C13.9254 0.697095 14.0807 1.04423 14.2289 1.23032C15.3741 2.67325 16.8549 3.91648 18.0731 5.37659C19.0522 6.55469 20.0979 7.86592 21.0563 9.23155C21.5573 9.94729 22.2559 10.8477 21.3862 11.5935C21.7842 11.8869 21.5881 12.0458 21.6504 12.7243C21.6725 12.9656 21.8651 13.2476 22.0082 13.5933C22.3289 14.3448 22.7104 15.5701 23.0103 16.195C23.157 16.4992 23.5113 16.9279 23.4354 17.222C23.3595 17.5162 22.9158 17.5384 22.8227 17.7531C23.3295 17.8354 23.6022 18.1883 24.0023 18.4123C24.3193 18.5898 24.6336 18.5977 24.7409 18.8103C24.8576 19.0422 24.7452 19.4802 24.7466 19.8073C24.7509 20.8351 25.0294 22.0347 24.9971 23.2758C24.9778 24.0158 25.0043 25.5611 24.6486 26.0106C24.2929 26.4601 22.9773 26.6483 22.1807 26.755C21.3612 26.8637 20.5216 27.3383 19.9276 27.7055C19.6577 27.8729 19.38 28.1642 19.156 28.3024C18.5598 28.671 17.9972 28.7726 17.5241 29.1441C17.4261 29.9142 17.2779 30.6965 16.326 30.3608C16.1886 30.4088 16.1564 30.5756 16.0726 30.6879C16.3661 31.194 17.2135 31.053 17.7188 31.2655C18.6228 31.6449 19.0186 32.289 19.5439 33.0835C19.7844 33.4492 20.0843 33.7563 20.274 34.1328C20.6641 34.9072 20.828 35.9221 20.9182 36.9385C21.0484 38.4308 21.1615 40.0204 21.3519 41.6079C21.4392 42.3373 21.6174 43.2413 21.1751 43.5505C21.1186 44.9104 19.8632 45.1415 19.0637 45.7392C18.4646 46.1858 17.9507 46.621 17.5435 47.1635C18.091 47.1349 18.5956 47.0561 19.1267 47.0082C18.8404 47.2229 18.0652 47.0583 17.4561 47.3109C17.2629 47.3911 16.0655 48.4547 16.9866 48.5041ZM16.4226 48.3488C16.4481 48.0785 16.5058 47.8123 16.5944 47.5557C16.5716 47.7237 16.5855 47.8947 16.6352 48.0567C16.6989 47.8556 16.7404 47.6273 16.7955 47.4162C15.9853 47.5335 14.7778 47.7368 13.9211 47.4033C14.9561 47.4405 15.9803 47.467 16.842 47.3045C17.5735 45.7127 19.0995 45.0378 20.5116 44.2311C21.1515 43.4037 20.8838 42.1648 20.7643 41.2207C20.5768 39.732 20.4844 38.2862 20.3506 36.8211C20.2668 35.9071 20.1301 34.9108 19.7343 34.1729C19.5568 33.84 19.2791 33.4994 19.078 33.1708C18.6571 32.4766 18.2742 31.967 17.6172 31.6105C17.25 31.4108 16.7898 31.4989 16.3367 31.2892C16.2122 31.2312 15.6303 30.7445 15.6145 30.6622C15.5222 30.1747 16.2422 29.6966 16.8542 29.9464C16.9594 29.5306 16.9916 29.031 17.2085 28.7447C17.6379 28.5357 18.0259 28.2738 18.4453 28.0662C19.5425 27.5251 20.4737 26.5524 21.7906 26.3119C22.6273 26.1587 23.5084 26.1409 24.2535 25.6441C24.7788 23.2822 24.2284 21.2581 24.343 19.0178C23.9379 18.9055 23.663 18.6041 23.313 18.408C22.8721 18.1611 22.2881 18.1411 22.2831 17.7975C22.2781 17.3945 22.8557 17.3509 23.0267 17.046C22.409 16.157 22.1048 14.8988 21.6861 13.8065C21.4865 13.2841 21.042 12.8897 21.2724 12.0888C20.231 11.8526 21.3655 11.2034 21.3727 10.6773C21.3769 10.4154 20.8602 9.68032 20.6569 9.39975C19.798 8.20661 18.8153 7.07289 17.9836 6.02719C16.91 4.68018 15.6933 3.52641 14.6082 2.29748C14.4565 2.12714 14.362 1.89953 14.1451 1.80506C14.7471 5.06453 15.6009 8.51724 16.0884 12.179C16.5758 15.8407 16.8757 19.7028 16.7647 23.6515C16.7461 24.3172 16.6996 25.015 16.6216 25.6348C16.4784 26.8101 16.3296 28.2566 15.2409 28.3353C15.0548 28.9186 14.9632 29.6107 14.7993 30.2206C14.1122 30.4267 12.8525 30.0058 13.5267 29.2479C13.2168 29.2672 12.5963 29.4583 12.4238 29.1305C12.4997 28.5858 12.7952 28.2931 12.9384 27.8257C12.7709 27.7742 12.5548 28.1836 12.2735 28.0082C12.2771 27.6561 12.5276 27.2638 12.5161 26.7607C12.1697 26.9797 12.2377 27.6775 12.0394 28.0683C11.771 28.0504 11.7803 27.7913 11.6472 27.6568C11.7145 27.1357 11.4804 26.5631 11.4654 25.9905C11.4167 24.4252 12.0036 22.9272 12.4488 21.8822C11.3981 22.7046 11.0116 24.5548 10.9751 26.4157C10.958 27.2925 11.217 28.1027 11.1469 28.8435C10.5743 28.6488 10.356 28.1449 10.079 27.6933C9.93588 28.7096 10.3768 29.2242 10.5285 29.9872C10.3617 30.0924 10.2988 29.9922 10.1499 29.9221C10.1349 30.111 10.1499 30.3351 10.0024 30.3716C9.67607 30.2728 9.46493 30.0703 9.10348 29.9987C9.0319 30.2921 9.34754 30.5748 9.12495 30.7667C8.90593 30.4553 8.9317 29.9328 8.66759 29.6609C8.6404 29.0117 8.40134 28.394 8.26678 27.7534C7.91249 26.0628 7.54675 24.4267 7.28551 22.6996C6.67928 18.695 6.56118 13.5059 7.15095 8.46714C7.43795 6.04265 7.96811 3.65318 8.73344 1.33482C7.85881 3.22436 6.7215 4.96719 5.88409 6.88178C5.04668 8.79638 3.97808 10.6387 3.31817 12.7558C4.23503 13.5002 2.60243 13.8073 2.82789 14.7914C2.66113 14.9403 2.39058 14.8673 2.19876 15.0147C1.79508 15.3239 1.73496 16.3746 1.5231 16.9601C1.27271 17.6334 1.06966 18.3234 0.915441 19.025C1.80868 19.5797 0.589065 20.4336 0.428024 21.0219C0.35645 21.2889 0.414425 21.5816 0.406551 21.8636C0.389374 22.4999 0.278434 23.1806 0.263404 23.8469C0.239785 25.0114 0.503892 26.1029 0.574034 27.0126C1.3957 27.6382 2.35407 28.2881 3.15069 29.0754C3.44629 29.3681 3.68463 29.8369 3.8972 29.8949C4.10978 29.9529 4.70384 29.7517 5.09535 29.7517C5.98644 29.7568 6.78091 29.9801 7.4852 30.1139C8.05134 30.222 8.9954 30.8576 8.07067 31.0379L8.0492 31.3428C7.01352 33.1322 4.85057 34.082 4.48339 36.7238C4.16203 39.0349 4.5063 41.0067 4.64157 43.0988C4.70599 43.2234 4.82909 42.8526 4.88134 42.9628C4.76325 43.2241 4.63728 43.6542 4.6931 43.9842C5.21058 44.536 6.00219 44.7507 6.60054 45.1938C7.6083 45.9403 8.39561 46.8743 9.18078 47.7168C9.1092 47.5901 9.02689 47.4684 9.01974 47.283C9.28599 47.5536 9.38262 47.9709 9.52075 48.3566C10.2673 48.3502 11.1047 48.2299 11.7524 48.2471C11.0596 48.3566 10.2651 48.348 9.55368 48.4354C9.85715 48.7052 10.1943 48.7331 10.5099 49.0015C10.4526 49.0187 10.3159 48.9435 10.3167 49.0266C10.6602 49.2492 11.1333 48.7467 11.4797 48.8412C11.1545 48.9449 10.8384 49.0756 10.535 49.232C10.8606 49.3916 10.9644 49.7437 11.2979 49.8232C11.9714 49.9835 12.4431 49.1726 13.0007 49.0631C12.6428 49.4109 12.4395 49.9291 11.9986 50.1803C12.3372 50.5661 13.3399 50.516 13.788 50.3457C13.8767 50.1732 14.0242 50.068 14.0907 49.869C13.7651 49.6142 13.3671 49.4224 13.0279 49.1797C13.6534 49.0709 13.8574 49.733 14.3684 49.7359C14.7363 49.7359 15.0656 49.2348 15.417 49.0051C15.6625 48.8462 15.8665 48.8319 16.0612 48.6293C15.9395 48.585 15.699 48.7524 15.6825 48.5642C15.8049 48.3888 16.1349 48.4533 16.3467 48.3817C15.9524 48.2707 15.5287 48.1841 15.1837 48.0303C15.6029 48.1103 16.0167 48.2167 16.4226 48.3488Z" fill="url(#paint17_linear)"/>
<path fill-rule="evenodd" clip-rule="evenodd" d="M18.6872 25.7393C18.179 22.3188 17.7231 18.738 17.3273 15.218C17.1276 13.4322 16.9343 11.6579 16.6294 9.95444C16.3288 8.27174 15.7798 6.69139 15.52 5.08313C16.4197 8.27532 17.0674 11.5606 17.6543 14.9345C18.247 18.3278 18.8375 21.7834 18.6872 25.7393Z" fill="url(#paint18_linear)"/>
<path fill-rule="evenodd" clip-rule="evenodd" d="M6.25773 8.13794C6.12675 11.0882 5.50191 13.9612 5.49547 17.2078C5.49117 19.365 5.82686 21.4306 6.04873 23.4189C6.13033 24.1497 6.2291 25.1367 6.08166 25.6449C5.98002 25.9977 5.47901 26.337 5.50406 26.7536C5.53698 27.2968 6.7022 27.8043 6.93553 28.1979C6.34934 27.7628 4.75611 27.5931 5.08535 26.1874C5.14905 25.9169 5.39741 25.788 5.47758 25.5254C5.65436 24.947 5.47758 24.101 5.40171 23.3731C5.19486 21.387 4.93075 19.2691 5.1283 16.9895C5.40672 13.7679 5.97358 10.9644 6.25773 8.13794Z" fill="url(#paint19_linear)"/>
<path fill-rule="evenodd" clip-rule="evenodd" d="M2.66769 24.0588C2.63763 24.5098 2.74857 25.1324 3.27606 25.214C3.64252 24.9535 3.21451 24.4661 2.89959 24.5742C3.43711 23.945 3.93025 25.2226 3.3412 25.3722C2.75214 25.5218 2.36922 24.4625 2.66769 24.0588Z" fill="url(#paint20_linear)"/>
<path fill-rule="evenodd" clip-rule="evenodd" d="M17.0645 31.8346C17.6106 32.4072 18.2884 32.8717 18.6226 33.6325C18.3854 33.3257 18.1238 33.0384 17.8403 32.7736C17.5369 32.4845 17.0602 32.2139 17.0645 31.8346Z" fill="url(#paint21_linear)"/>
<path fill-rule="evenodd" clip-rule="evenodd" d="M14.4517 31.9162C14.9298 31.3185 16.1916 32.4888 15.337 32.9375C16.2238 32.2583 14.1976 31.3293 14.6807 32.4694C14.5118 32.5045 14.4796 32.1194 14.4517 31.9162Z" fill="url(#paint22_linear)"/>
<path fill-rule="evenodd" clip-rule="evenodd" d="M10.5752 32.521C10.7219 32.7894 11.0297 33.5338 11.1149 34.0956C10.7634 33.7213 10.7083 33.0857 10.5752 32.521Z" fill="url(#paint23_linear)"/>
<path fill-rule="evenodd" clip-rule="evenodd" d="M9.31104 34.6516C9.16789 34.7232 9.19008 35.124 9.27024 35.2242C9.21513 35.3709 8.90808 34.497 9.31104 34.6516Z" fill="url(#paint24_linear)"/>
<path fill-rule="evenodd" clip-rule="evenodd" d="M13.4386 45.0299C13.5345 45.1158 13.2296 45.1151 13.085 45.158C12.9218 45.2067 12.7272 45.3055 12.6134 45.3162C12.641 45.4164 12.6466 45.5214 12.6298 45.624C13.4794 45.6405 14.0835 45.3742 15.0161 45.4873C15.2745 45.5166 14.9681 45.5453 14.8608 45.5145C13.9339 45.5145 12.9827 45.9217 12.0959 45.5861C12.2168 45.4837 12.4087 45.6233 12.5532 45.6183C12.5661 45.5002 12.5196 45.4329 12.496 45.3463C12.2677 45.3169 12.1825 45.4522 11.9542 45.4222C12.063 45.2862 12.2813 45.279 12.4659 45.2289C12.4946 45.0142 12.375 44.9262 12.3872 44.7279C12.2763 44.71 12.2641 44.8059 12.1531 44.788C12.1188 44.6105 12.2963 44.6771 12.3221 44.5697C12.2963 44.3679 12.2448 44.229 12.2505 43.9893C12.2591 43.3866 11.942 42.784 11.8447 42.1591C11.738 41.4742 11.748 40.7663 11.5283 40.1429C11.2485 40.1915 11.0531 40.3368 10.7109 40.3147C10.9665 40.1966 11.2778 40.1429 11.5362 40.0284C11.4174 39.9611 11.1676 40.0999 10.9944 40.1049C11.116 39.9704 11.33 39.9418 11.5448 39.9138C11.5018 38.7515 11.4374 37.5992 11.3751 36.3752C11.5569 36.7904 11.5405 37.3773 11.572 37.922C11.5569 37.9678 11.6722 38.0651 11.6836 37.9685C11.598 38.1317 11.5709 38.3195 11.607 38.5003C11.6178 38.5862 11.7938 38.5289 11.8711 38.5568C11.8919 38.7043 11.6879 38.5926 11.5992 38.6141C11.5755 38.7658 11.6514 38.8288 11.6099 38.9984C11.6729 39.0872 11.9076 39.0263 11.9857 39.1022C11.957 39.2332 11.733 39.1401 11.5992 39.1509C11.5863 39.3885 11.6321 39.5753 11.5884 39.8401C11.9463 39.8401 12.0894 39.5968 12.4137 39.5538C12.3765 39.7177 12.1546 39.6676 12.0894 39.7993C12.3299 39.7736 12.4767 39.6404 12.7515 39.6562C12.4251 39.8444 12.015 39.9353 11.6478 40.0763C11.9585 41.4412 12.3142 42.7668 12.4602 44.2741C12.5905 44.3142 12.6112 44.2283 12.73 44.2548C12.69 44.3879 12.4545 44.2949 12.4824 44.506C12.584 44.6205 12.7229 44.428 12.904 44.4974C12.8381 44.6141 12.6663 44.6084 12.5461 44.6642C12.5296 44.8789 12.584 45.0364 12.622 45.206C12.8768 45.1258 13.1774 45.1015 13.4386 45.0299Z" fill="url(#paint25_linear)"/>
<path fill-rule="evenodd" clip-rule="evenodd" d="M18.3367 39.7834C17.6703 40.5292 16.5817 41.1433 15.667 41.7403C16.382 41.0503 17.5494 40.5207 18.3367 39.7834Z" fill="url(#paint26_linear)"/>
<path fill-rule="evenodd" clip-rule="evenodd" d="M19.3536 41.1219C19.0516 41.6588 18.6394 42.1257 18.144 42.4919C18.4726 42.114 18.8805 41.4705 19.3536 41.1219Z" fill="url(#paint27_linear)"/>
<path fill-rule="evenodd" clip-rule="evenodd" d="M19.168 41.5686C19.2983 41.9186 18.8753 42.2894 18.6777 42.5298C18.7328 42.2493 19.0442 41.9071 19.168 41.5686Z" fill="url(#paint28_linear)"/>
<path fill-rule="evenodd" clip-rule="evenodd" d="M9.93505 40.4113C9.52135 41.2279 8.92228 42.1877 8.44202 43.0645C8.80776 43.5948 9.3646 43.9592 9.76041 44.4623C9.56931 44.4723 9.26583 44.2719 9.13414 44.1109C9.04896 44.1309 9.19712 44.2426 9.23792 44.2712C8.87289 44.1825 8.51646 43.7759 8.21871 43.509C7.93742 43.5548 7.62608 45.0077 7.20021 44.8932C7.05707 44.8538 7.02128 44.5912 7.03917 44.4595C7.09572 44.0422 7.70481 43.529 7.85941 43.1769C7.25246 42.4976 6.57108 41.8807 6.09082 41.0955C6.12697 41.0853 6.16039 41.0672 6.18862 41.0424C6.21686 41.0176 6.2392 40.9869 6.25401 40.9524C6.75502 41.3295 7.16657 41.7998 7.65184 42.3173C7.69479 42.3623 8.03333 42.7689 8.08129 42.7689C8.2094 42.7689 8.42985 42.3173 8.54723 42.1505C8.97381 41.5428 9.52278 40.9788 9.93505 40.4113ZM7.15083 44.506C7.304 44.4924 7.45358 44.0765 7.40992 44.103C7.33477 44.2497 7.21167 44.3421 7.15083 44.506Z" fill="url(#paint29_linear)"/>
<path fill-rule="evenodd" clip-rule="evenodd" d="M12.7279 45.8623C12.8861 45.8952 12.5311 45.9725 12.4144 45.9553C11.9838 46.0949 11.5402 46.1908 11.0903 46.2416C11.5942 46.0684 12.1704 45.9754 12.7279 45.8623Z" fill="url(#paint30_linear)"/>
</g>
<defs>
<linearGradient id="paint0_linear" x1="22.9145" y1="19.6458" x2="22.9145" y2="19.8726" gradientUnits="userSpaceOnUse">
<stop stop-color="#FF20B3" stop-opacity="0.92"/>
<stop offset="0.416667" stop-color="#0056FF"/>
</linearGradient>
<linearGradient id="paint1_linear" x1="23.3379" y1="20.691" x2="23.3379" y2="20.8006" gradientUnits="userSpaceOnUse">
<stop stop-color="#FF20B3" stop-opacity="0.92"/>
<stop offset="0.416667" stop-color="#0056FF"/>
</linearGradient>
<linearGradient id="paint2_linear" x1="20.7856" y1="23.6166" x2="20.7856" y2="24.6444" gradientUnits="userSpaceOnUse">
<stop stop-color="#FF20B3" stop-opacity="0.92"/>
<stop offset="0.416667" stop-color="#0056FF"/>
</linearGradient>
<linearGradient id="paint3_linear" x1="22.0106" y1="24.2979" x2="22.0106" y2="24.7037" gradientUnits="userSpaceOnUse">
<stop stop-color="#FF20B3" stop-opacity="0.92"/>
<stop offset="0.416667" stop-color="#0056FF"/>
</linearGradient>
<linearGradient id="paint4_linear" x1="11.411" y1="29.595" x2="11.411" y2="30.6299" gradientUnits="userSpaceOnUse">
<stop stop-color="#FF20B3" stop-opacity="0.92"/>
<stop offset="0.416667" stop-color="#0056FF"/>
</linearGradient>
<linearGradient id="paint5_linear" x1="11.0892" y1="30.1833" x2="11.0892" y2="31.8782" gradientUnits="userSpaceOnUse">
<stop stop-color="#FF20B3" stop-opacity="0.92"/>
<stop offset="0.416667" stop-color="#0056FF"/>
</linearGradient>
<linearGradient id="paint6_linear" x1="6.70413" y1="31.5217" x2="6.70413" y2="37.2941" gradientUnits="userSpaceOnUse">
<stop stop-color="#FF20B3" stop-opacity="0.92"/>
<stop offset="0.416667" stop-color="#0056FF"/>
</linearGradient>
<linearGradient id="paint7_linear" x1="11.5479" y1="32.2181" x2="11.5479" y2="33.5938" gradientUnits="userSpaceOnUse">
<stop stop-color="#FF20B3" stop-opacity="0.92"/>
<stop offset="0.416667" stop-color="#0056FF"/>
</linearGradient>
<linearGradient id="paint8_linear" x1="11.2399" y1="32.5675" x2="11.2399" y2="33.7635" gradientUnits="userSpaceOnUse">
<stop stop-color="#FF20B3" stop-opacity="0.92"/>
<stop offset="0.416667" stop-color="#0056FF"/>
</linearGradient>
<linearGradient id="paint9_linear" x1="16.217" y1="33.2975" x2="16.217" y2="33.6548" gradientUnits="userSpaceOnUse">
<stop stop-color="#FF20B3" stop-opacity="0.92"/>
<stop offset="0.416667" stop-color="#0056FF"/>
</linearGradient>
<linearGradient id="paint10_linear" x1="17.9036" y1="33.8287" x2="17.9036" y2="34.437" gradientUnits="userSpaceOnUse">
<stop stop-color="#FF20B3" stop-opacity="0.92"/>
<stop offset="0.416667" stop-color="#0056FF"/>
</linearGradient>
<linearGradient id="paint11_linear" x1="8.95857" y1="33.3441" x2="8.95857" y2="34.3634" gradientUnits="userSpaceOnUse">
<stop stop-color="#FF20B3" stop-opacity="0.92"/>
<stop offset="0.416667" stop-color="#0056FF"/>
</linearGradient>
<linearGradient id="paint12_linear" x1="8.27821" y1="33.5781" x2="8.27821" y2="34.6718" gradientUnits="userSpaceOnUse">
<stop stop-color="#FF20B3" stop-opacity="0.92"/>
<stop offset="0.416667" stop-color="#0056FF"/>
</linearGradient>
<linearGradient id="paint13_linear" x1="8.64503" y1="34.7997" x2="8.64503" y2="35.3138" gradientUnits="userSpaceOnUse">
<stop stop-color="#FF20B3" stop-opacity="0.92"/>
<stop offset="0.416667" stop-color="#0056FF"/>
</linearGradient>
<linearGradient id="paint14_linear" x1="5.77868" y1="35.074" x2="5.77868" y2="36.5291" gradientUnits="userSpaceOnUse">
<stop stop-color="#FF20B3" stop-opacity="0.92"/>
<stop offset="0.416667" stop-color="#0056FF"/>
</linearGradient>
<linearGradient id="paint15_linear" x1="16.8116" y1="40.028" x2="16.8116" y2="43.0438" gradientUnits="userSpaceOnUse">
<stop stop-color="#FF20B3" stop-opacity="0.92"/>
<stop offset="0.416667" stop-color="#0056FF"/>
</linearGradient>
<linearGradient id="paint16_linear" x1="12.92" y1="45.9976" x2="12.92" y2="47.2301" gradientUnits="userSpaceOnUse">
<stop stop-color="#FF20B3" stop-opacity="0.92"/>
<stop offset="0.416667" stop-color="#0056FF"/>
</linearGradient>
<linearGradient id="paint17_linear" x1="12.4999" y1="-0.00146484" x2="12.4999" y2="50.6513" gradientUnits="userSpaceOnUse">
<stop stop-color="#FF20B3" stop-opacity="0.92"/>
<stop offset="0.416667" stop-color="#0056FF"/>
</linearGradient>
<linearGradient id="paint18_linear" x1="17.1154" y1="5.08313" x2="17.1154" y2="25.7393" gradientUnits="userSpaceOnUse">
<stop stop-color="#FF20B3" stop-opacity="0.92"/>
<stop offset="0.416667" stop-color="#0056FF"/>
</linearGradient>
<linearGradient id="paint19_linear" x1="5.98827" y1="8.13794" x2="5.98827" y2="28.1979" gradientUnits="userSpaceOnUse">
<stop stop-color="#FF20B3" stop-opacity="0.92"/>
<stop offset="0.416667" stop-color="#0056FF"/>
</linearGradient>
<linearGradient id="paint20_linear" x1="3.08611" y1="24.0588" x2="3.08611" y2="25.3866" gradientUnits="userSpaceOnUse">
<stop stop-color="#FF20B3" stop-opacity="0.92"/>
<stop offset="0.416667" stop-color="#0056FF"/>
</linearGradient>
<linearGradient id="paint21_linear" x1="17.8435" y1="31.8346" x2="17.8435" y2="33.6325" gradientUnits="userSpaceOnUse">
<stop stop-color="#FF20B3" stop-opacity="0.92"/>
<stop offset="0.416667" stop-color="#0056FF"/>
</linearGradient>
<linearGradient id="paint22_linear" x1="15.0392" y1="31.7498" x2="15.0392" y2="32.9375" gradientUnits="userSpaceOnUse">
<stop stop-color="#FF20B3" stop-opacity="0.92"/>
<stop offset="0.416667" stop-color="#0056FF"/>
</linearGradient>
<linearGradient id="paint23_linear" x1="10.845" y1="32.521" x2="10.845" y2="34.0956" gradientUnits="userSpaceOnUse">
<stop stop-color="#FF20B3" stop-opacity="0.92"/>
<stop offset="0.416667" stop-color="#0056FF"/>
</linearGradient>
<linearGradient id="paint24_linear" x1="9.20874" y1="34.6332" x2="9.20874" y2="35.2409" gradientUnits="userSpaceOnUse">
<stop stop-color="#FF20B3" stop-opacity="0.92"/>
<stop offset="0.416667" stop-color="#0056FF"/>
</linearGradient>
<linearGradient id="paint25_linear" x1="12.914" y1="36.3752" x2="12.914" y2="45.7187" gradientUnits="userSpaceOnUse">
<stop stop-color="#FF20B3" stop-opacity="0.92"/>
<stop offset="0.416667" stop-color="#0056FF"/>
</linearGradient>
<linearGradient id="paint26_linear" x1="17.0018" y1="39.7834" x2="17.0018" y2="41.7403" gradientUnits="userSpaceOnUse">
<stop stop-color="#FF20B3" stop-opacity="0.92"/>
<stop offset="0.416667" stop-color="#0056FF"/>
</linearGradient>
<linearGradient id="paint27_linear" x1="18.7488" y1="41.1219" x2="18.7488" y2="42.4919" gradientUnits="userSpaceOnUse">
<stop stop-color="#FF20B3" stop-opacity="0.92"/>
<stop offset="0.416667" stop-color="#0056FF"/>
</linearGradient>
<linearGradient id="paint28_linear" x1="18.9351" y1="41.5686" x2="18.9351" y2="42.5298" gradientUnits="userSpaceOnUse">
<stop stop-color="#FF20B3" stop-opacity="0.92"/>
<stop offset="0.416667" stop-color="#0056FF"/>
</linearGradient>
<linearGradient id="paint29_linear" x1="8.01293" y1="40.4113" x2="8.01293" y2="44.8996" gradientUnits="userSpaceOnUse">
<stop stop-color="#FF20B3" stop-opacity="0.92"/>
<stop offset="0.416667" stop-color="#0056FF"/>
</linearGradient>
<linearGradient id="paint30_linear" x1="11.9291" y1="45.8623" x2="11.9291" y2="46.2416" gradientUnits="userSpaceOnUse">
<stop stop-color="#FF20B3" stop-opacity="0.92"/>
<stop offset="0.416667" stop-color="#0056FF"/>
</linearGradient>
<clipPath id="clip0">
<rect width="25" height="50.652" fill="white"/>
</clipPath>
</defs>
</svg>
